<svg width="24" height="18" viewBox="0 0 24 18" fill="none" xmlns="http://www.w3.org/2000/svg">
<path d="M23.1427 7.39292V8.03578C23.1427 8.56834 22.711 9.00006 22.1784 9.00006H21.857L20.8078 16.3442C20.6721 17.2943 19.8584 18 18.8987 18H4.24404C3.2843 18 2.4706 17.2943 2.33484 16.3442L1.28571 9.00006H0.96428C0.431716 9.00006 0 8.56834 0 8.03578V7.39292C0 6.86036 0.431716 6.42864 0.96428 6.42864H3.66993L7.96017 0.529624C8.37782 -0.0446046 9.18187 -0.171608 9.75618 0.246045C10.3304 0.663699 10.4574 1.46779 10.0398 2.04206L6.84948 6.42864H16.2932L13.103 2.04202C12.6853 1.46779 12.8123 0.663659 13.3866 0.246005C13.9608 -0.171649 14.7649 -0.0446849 15.1826 0.529584L19.4728 6.42864H22.1784C22.711 6.42864 23.1427 6.86036 23.1427 7.39292ZM12.5356 14.4643V9.96434C12.5356 9.43177 12.1039 9.00006 11.5714 9.00006C11.0388 9.00006 10.6071 9.43177 10.6071 9.96434V14.4643C10.6071 14.9969 11.0388 15.4286 11.5714 15.4286C12.1039 15.4286 12.5356 14.9969 12.5356 14.4643ZM17.0356 14.4643V9.96434C17.0356 9.43177 16.6039 9.00006 16.0713 9.00006C15.5388 9.00006 15.107 9.43177 15.107 9.96434V14.4643C15.107 14.9969 15.5388 15.4286 16.0713 15.4286C16.6039 15.4286 17.0356 14.9969 17.0356 14.4643ZM8.03566 14.4643V9.96434C8.03566 9.43177 7.60395 9.00006 7.07138 9.00006C6.53882 9.00006 6.1071 9.43177 6.1071 9.96434V14.4643C6.1071 14.9969 6.53882 15.4286 7.07138 15.4286C7.60395 15.4286 8.03566 14.9969 8.03566 14.4643Z" fill="black"/>
</svg>
