<svg width="25" height="30" viewBox="0 0 25 30" fill="none" xmlns="http://www.w3.org/2000/svg">
<path d="M24.375 17.8125C24.375 24.5449 18.9199 30 12.1875 30C5.45508 30 0 24.5449 0 17.8125C0 11.7188 4.4707 6.66797 10.3125 5.77148V3.75H8.67188C8.28516 3.75 7.96875 3.43359 7.96875 3.04688V0.703125C7.96875 0.316406 8.28516 0 8.67188 0H15.7031C16.0898 0 16.4062 0.316406 16.4062 0.703125V3.04688C16.4062 3.43359 16.0898 3.75 15.7031 3.75H14.0625V5.77148C16.2598 6.11133 18.2637 7.03711 19.9043 8.38477L21.5156 6.77344C21.791 6.49805 22.2363 6.49805 22.5117 6.77344L24.1699 8.43164C24.4453 8.70703 24.4453 9.15234 24.1699 9.42773L22.4473 11.1504L22.4121 11.1855C23.6543 13.084 24.375 15.3633 24.375 17.8125ZM14.0625 19.9219V11.0449C14.0625 10.6582 13.7461 10.3418 13.3594 10.3418H11.0156C10.6289 10.3418 10.3125 10.6582 10.3125 11.0449V19.9219C10.3125 20.3086 10.6289 20.625 11.0156 20.625H13.3594C13.7461 20.625 14.0625 20.3086 14.0625 19.9219Z" fill="white"/>
</svg>
