<svg width="47" height="36" viewBox="0 0 47 36" fill="none" xmlns="http://www.w3.org/2000/svg">
<path d="M46.2854 14.7858V16.0716C46.2854 17.1367 45.422 18.0001 44.3569 18.0001H43.714L41.6157 32.6883C41.3442 34.5885 39.7168 36 37.7974 36H8.48807C6.56859 36 4.94121 34.5885 4.66968 32.6883L2.57141 18.0001H1.92856C0.863432 18.0001 0 17.1367 0 16.0716V14.7858C0 13.7207 0.863432 12.8573 1.92856 12.8573H7.33986L15.9203 1.05925C16.7556 -0.0892092 18.3637 -0.343217 19.5124 0.492091C20.6609 1.3274 20.9148 2.93558 20.0795 4.08411L13.699 12.8573H32.5865L26.2059 4.08403C25.3706 2.93558 25.6246 1.32732 26.7731 0.49201C27.9215 -0.343297 29.5299 -0.0893699 30.3652 1.05917L38.9456 12.8573H44.3569C45.422 12.8573 46.2854 13.7207 46.2854 14.7858ZM25.0713 28.9286V19.9287C25.0713 18.8635 24.2078 18.0001 23.1427 18.0001C22.0776 18.0001 21.2142 18.8635 21.2142 19.9287V28.9286C21.2142 29.9937 22.0776 30.8572 23.1427 30.8572C24.2078 30.8572 25.0713 29.9937 25.0713 28.9286ZM34.0712 28.9286V19.9287C34.0712 18.8635 33.2078 18.0001 32.1427 18.0001C31.0775 18.0001 30.2141 18.8635 30.2141 19.9287V28.9286C30.2141 29.9937 31.0775 30.8572 32.1427 30.8572C33.2078 30.8572 34.0712 29.9937 34.0712 28.9286ZM16.0713 28.9286V19.9287C16.0713 18.8635 15.2079 18.0001 14.1428 18.0001C13.0776 18.0001 12.2142 18.8635 12.2142 19.9287V28.9286C12.2142 29.9937 13.0776 30.8572 14.1428 30.8572C15.2079 30.8572 16.0713 29.9937 16.0713 28.9286Z" fill="white"/>
</svg>
